<svg width="3145" height="1751" viewBox="0 0 3145 1751" fill="none" xmlns="http://www.w3.org/2000/svg">
<path d="M1435.5 716.154C1435.5 1111.4 1114.27 1431.81 718 1431.81C321.734 1431.81 0.5 1111.4 0.5 716.154C0.5 320.911 321.734 0.5 718 0.5C1114.27 0.5 1435.5 320.911 1435.5 716.154Z" stroke="#E3E3E3"/>
<path d="M3144.5 923.849C3144.5 1380.24 2773.57 1750.22 2316 1750.22C1858.43 1750.22 1487.5 1380.24 1487.5 923.849C1487.5 467.459 1858.43 97.4802 2316 97.4802C2773.57 97.4802 3144.5 467.459 3144.5 923.849Z" stroke="#E3E3E3"/>
<path d="M2894.5 923.848C2894.5 1242.52 2635.5 1500.86 2316 1500.86C1996.5 1500.86 1737.5 1242.52 1737.5 923.848C1737.5 605.174 1996.5 346.836 2316 346.836C2635.5 346.836 2894.5 605.174 2894.5 923.848Z" stroke="#E3E3E3"/>
</svg>
