<svg width="269" height="204" viewBox="0 0 269 204" fill="none" xmlns="http://www.w3.org/2000/svg">
<rect x="0.0596924" y="0.866943" width="268.26" height="202.564" fill="#F1F1F1"/>
<rect x="6.62933" y="30.4302" width="255.121" height="168.621" fill="white"/>
<rect x="27.4332" y="52.3293" width="211.323" height="122.633" rx="8" fill="#F1F1F1"/>
<rect x="244.231" y="14.0061" width="16.4241" height="4.37976" rx="2.18988" fill="#C4C4C4"/>
<rect x="123.788" y="131.165" width="47.0824" height="4.37976" rx="2.18988" fill="white"/>
<rect x="39.4775" y="73.1328" width="47.0824" height="4.37976" rx="2.18988" fill="white"/>
<rect x="180.725" y="131.165" width="47.0824" height="4.37976" rx="2.18988" fill="white"/>
<rect x="123.788" y="138.829" width="47.0824" height="4.37976" rx="2.18988" fill="white"/>
<rect x="39.4775" y="80.7971" width="47.0824" height="4.37976" rx="2.18988" fill="white"/>
<rect x="180.725" y="138.829" width="47.0824" height="4.37976" rx="2.18988" fill="white"/>
<rect x="123.788" y="146.494" width="26.2786" height="4.37976" rx="2.18988" fill="white"/>
<rect x="39.4775" y="88.4624" width="26.2786" height="4.37976" rx="2.18988" fill="white"/>
<rect x="180.725" y="146.494" width="26.2786" height="4.37976" rx="2.18988" fill="white"/>
<circle cx="9.36668" cy="15.6485" r="2.73735" fill="#C4C4C4"/>
<circle cx="17.0312" cy="15.6485" r="2.73735" fill="#C4C4C4"/>
<circle cx="24.6958" cy="15.6485" r="2.73735" fill="#C4C4C4"/>
</svg>
