<svg width="97" height="97" viewBox="0 0 97 97" fill="none" xmlns="http://www.w3.org/2000/svg">
<rect width="97" height="97" rx="20" fill="#C6DEFF"/>
<circle cx="48.0992" cy="47.2974" r="25.6529" fill="#0C5BC6"/>
<mask id="mask0_214_17798" style="mask-type:alpha" maskUnits="userSpaceOnUse" x="22" y="21" width="52" height="52">
<circle cx="48.0992" cy="47.2974" r="25.6529" fill="url(#paint0_linear_214_17798)"/>
</mask>
<g mask="url(#mask0_214_17798)">
</g>
<path d="M68.3959 78.7134C68.42 75.4312 67.9084 72.1772 66.8904 69.1372C65.8725 66.0972 64.3681 63.3308 62.4631 60.9958C60.5581 58.6609 58.2899 56.8031 55.7879 55.5287C53.2859 54.2543 50.5992 53.5881 47.8811 53.5682C45.163 53.5483 42.4668 54.175 39.9464 55.4127C37.426 56.6504 35.1308 58.4747 33.1919 60.7815C31.2529 63.0883 29.7081 65.8324 28.6457 68.8572C27.5834 71.8819 27.0242 75.1281 27.0002 78.4103L68.3959 78.7134Z" fill="#E1E3F9"/>
<path d="M57.7188 40.8842C57.7188 46.1971 53.4118 50.5041 48.0989 50.5041C42.7861 50.5041 38.4791 46.1971 38.4791 40.8842C38.4791 35.5714 42.7861 31.2644 48.0989 31.2644C53.4118 31.2644 57.7188 35.5714 57.7188 40.8842Z" fill="#E1E3F9"/>
<defs>
<linearGradient id="paint0_linear_214_17798" x1="26.4546" y1="26.8553" x2="72.1488" y2="74.1528" gradientUnits="userSpaceOnUse">
<stop stop-color="#5860C2"/>
<stop offset="1" stop-color="#292F8D"/>
</linearGradient>
</defs>
</svg>
