<svg width="96" height="103" viewBox="0 0 96 103" fill="none" xmlns="http://www.w3.org/2000/svg">
<rect width="96" height="103" rx="20" fill="#0C5BC6"/>
<mask id="mask0_214_17885" style="mask-type:alpha" maskUnits="userSpaceOnUse" x="0" y="0" width="96" height="103">
<rect width="96" height="103" rx="20" fill="#5236FF"/>
</mask>
<g mask="url(#mask0_214_17885)">
<path d="M77.1096 69.6848C77.1096 76.4862 65.4678 81.9999 51.1068 81.9999C36.7459 81.9999 25.104 76.4862 25.104 69.6848C25.104 62.8833 36.7459 57.3697 51.1068 57.3697C65.4678 57.3697 77.1096 62.8833 77.1096 69.6848Z" fill="#22137B"/>
<path d="M77.1096 68.9604C77.1096 75.7618 65.4678 81.2755 51.1068 81.2755C36.7459 81.2755 25.104 75.7618 25.104 68.9604C25.104 62.1589 36.7459 56.6453 51.1068 56.6453C65.4678 56.6453 77.1096 62.1589 77.1096 68.9604Z" fill="#22137B"/>
<path d="M77.1096 68.236C77.1096 75.0374 65.4678 80.5511 51.1068 80.5511C36.7459 80.5511 25.104 75.0374 25.104 68.236C25.104 61.4345 36.7459 55.9208 51.1068 55.9208C65.4678 55.9208 77.1096 61.4345 77.1096 68.236Z" fill="#22137B"/>
<path d="M77.1096 67.5115C77.1096 74.313 65.4678 79.8267 51.1068 79.8267C36.7459 79.8267 25.104 74.313 25.104 67.5115C25.104 60.7101 36.7459 55.1964 51.1068 55.1964C65.4678 55.1964 77.1096 60.7101 77.1096 67.5115Z" fill="#22137B"/>
<path d="M77.1096 66.7871C77.1096 73.5886 65.4678 79.1022 51.1068 79.1022C36.7459 79.1022 25.104 73.5886 25.104 66.7871C25.104 59.9857 36.7459 54.472 51.1068 54.472C65.4678 54.472 77.1096 59.9857 77.1096 66.7871Z" fill="#22137B"/>
<path d="M77.1096 66.0627C77.1096 72.8642 65.4678 78.3778 51.1068 78.3778C36.7459 78.3778 25.104 72.8642 25.104 66.0627C25.104 59.2612 36.7459 53.7476 51.1068 53.7476C65.4678 53.7476 77.1096 59.2612 77.1096 66.0627Z" fill="#22137B"/>
<path d="M77.1096 65.3383C77.1096 72.1397 65.4678 77.6534 51.1068 77.6534C36.7459 77.6534 25.104 72.1397 25.104 65.3383C25.104 58.5368 36.7459 53.0232 51.1068 53.0232C65.4678 53.0232 77.1096 58.5368 77.1096 65.3383Z" fill="#22137B"/>
<path d="M77.1096 64.6139C77.1096 71.4153 65.4678 76.929 51.1068 76.929C36.7459 76.929 25.104 71.4153 25.104 64.6139C25.104 57.8124 36.7459 52.2987 51.1068 52.2987C65.4678 52.2987 77.1096 57.8124 77.1096 64.6139Z" fill="#22137B"/>
<path d="M77.1096 63.8894C77.1096 70.6909 65.4678 76.2046 51.1068 76.2046C36.7459 76.2046 25.104 70.6909 25.104 63.8894C25.104 57.088 36.7459 51.5743 51.1068 51.5743C65.4678 51.5743 77.1096 57.088 77.1096 63.8894Z" fill="#22137B"/>
<path d="M77.1096 63.165C77.1096 69.9665 65.4678 75.4801 51.1068 75.4801C36.7459 75.4801 25.104 69.9665 25.104 63.165C25.104 56.3636 36.7459 50.8499 51.1068 50.8499C65.4678 50.8499 77.1096 56.3636 77.1096 63.165Z" fill="#22137B"/>
<path d="M77.1096 62.4406C77.1096 69.2421 65.4678 74.7557 51.1068 74.7557C36.7459 74.7557 25.104 69.2421 25.104 62.4406C25.104 55.6392 36.7459 50.1255 51.1068 50.1255C65.4678 50.1255 77.1096 55.6392 77.1096 62.4406Z" fill="#22137B"/>
<path d="M77.1096 67.6848C77.1096 74.4862 65.4678 79.9999 51.1068 79.9999C36.7459 79.9999 25.104 74.4862 25.104 67.6848C25.104 60.8833 36.7459 55.3697 51.1068 55.3697C65.4678 55.3697 77.1096 60.8833 77.1096 67.6848Z" fill="#4192FF"/>
<path d="M77.1096 66.9604C77.1096 73.7618 65.4678 79.2755 51.1068 79.2755C36.7459 79.2755 25.104 73.7618 25.104 66.9604C25.104 60.1589 36.7459 54.6453 51.1068 54.6453C65.4678 54.6453 77.1096 60.1589 77.1096 66.9604Z" fill="#4192FF"/>
<path d="M77.1096 66.236C77.1096 73.0374 65.4678 78.5511 51.1068 78.5511C36.7459 78.5511 25.104 73.0374 25.104 66.236C25.104 59.4345 36.7459 53.9208 51.1068 53.9208C65.4678 53.9208 77.1096 59.4345 77.1096 66.236Z" fill="#4192FF"/>
<path d="M77.1096 65.5115C77.1096 72.313 65.4678 77.8267 51.1068 77.8267C36.7459 77.8267 25.104 72.313 25.104 65.5115C25.104 58.7101 36.7459 53.1964 51.1068 53.1964C65.4678 53.1964 77.1096 58.7101 77.1096 65.5115Z" fill="#4192FF"/>
<path d="M77.1096 64.7871C77.1096 71.5886 65.4678 77.1022 51.1068 77.1022C36.7459 77.1022 25.104 71.5886 25.104 64.7871C25.104 57.9857 36.7459 52.472 51.1068 52.472C65.4678 52.472 77.1096 57.9857 77.1096 64.7871Z" fill="#4192FF"/>
<path d="M77.1096 64.0627C77.1096 70.8642 65.4678 76.3778 51.1068 76.3778C36.7459 76.3778 25.104 70.8642 25.104 64.0627C25.104 57.2612 36.7459 51.7476 51.1068 51.7476C65.4678 51.7476 77.1096 57.2612 77.1096 64.0627Z" fill="#4192FF"/>
<path d="M77.1096 63.3383C77.1096 70.1397 65.4678 75.6534 51.1068 75.6534C36.7459 75.6534 25.104 70.1397 25.104 63.3383C25.104 56.5368 36.7459 51.0232 51.1068 51.0232C65.4678 51.0232 77.1096 56.5368 77.1096 63.3383Z" fill="#4192FF"/>
<path d="M77.1096 62.6139C77.1096 69.4153 65.4678 74.929 51.1068 74.929C36.7459 74.929 25.104 69.4153 25.104 62.6139C25.104 55.8124 36.7459 50.2987 51.1068 50.2987C65.4678 50.2987 77.1096 55.8124 77.1096 62.6139Z" fill="#4192FF"/>
<path d="M77.1096 61.8894C77.1096 68.6909 65.4678 74.2046 51.1068 74.2046C36.7459 74.2046 25.104 68.6909 25.104 61.8894C25.104 55.088 36.7459 49.5743 51.1068 49.5743C65.4678 49.5743 77.1096 55.088 77.1096 61.8894Z" fill="#4192FF"/>
<path d="M77.1096 61.165C77.1096 67.9665 65.4678 73.4801 51.1068 73.4801C36.7459 73.4801 25.104 67.9665 25.104 61.165C25.104 54.3636 36.7459 48.8499 51.1068 48.8499C65.4678 48.8499 77.1096 54.3636 77.1096 61.165Z" fill="#4192FF"/>
<path d="M77.1096 60.4406C77.1096 67.2421 65.4678 72.7557 51.1068 72.7557C36.7459 72.7557 25.104 67.2421 25.104 60.4406C25.104 53.6392 36.7459 48.1255 51.1068 48.1255C65.4678 48.1255 77.1096 53.6392 77.1096 60.4406Z" fill="#4192FF"/>
<ellipse cx="51.1068" cy="59.8687" rx="26.0028" ry="11.7432" fill="white"/>
<path d="M56.9784 61.9899C56.9784 62.613 56.5806 63.14 55.7849 63.5708C55.0035 63.9939 53.945 64.267 52.6094 64.39V65.0478C52.6094 65.2555 52.4886 65.4209 52.2471 65.5439C52.0197 65.6747 51.7142 65.7401 51.3306 65.7401C50.9612 65.7401 50.6557 65.6747 50.4142 65.5439C50.1726 65.4209 50.0519 65.2555 50.0519 65.0478V64.4247C49.2704 64.3862 48.5103 64.2977 47.7714 64.1593C47.0468 64.0208 46.4074 63.8439 45.8533 63.6285C45.626 63.5515 45.4626 63.4669 45.3631 63.3746C45.2779 63.2746 45.2352 63.1515 45.2352 63.0053C45.2352 62.813 45.3418 62.6438 45.5549 62.4976C45.7823 62.3515 46.038 62.2784 46.3222 62.2784C46.5921 62.2784 46.926 62.3399 47.3239 62.463C47.9774 62.6707 48.5955 62.8246 49.178 62.9246C49.7748 63.0169 50.3929 63.063 51.0322 63.063C51.8847 63.063 52.5383 62.9784 52.993 62.8092C53.4477 62.6323 53.675 62.3861 53.675 62.0707C53.675 61.8784 53.54 61.7207 53.2701 61.5976C53.0143 61.4745 52.6946 61.3783 52.311 61.3091C51.9274 61.2399 51.3732 61.1514 50.6486 61.0437C49.5972 60.8975 48.7305 60.7514 48.0485 60.6052C47.3665 60.4591 46.7768 60.2283 46.2795 59.9129C45.7965 59.5975 45.5549 59.1744 45.5549 58.6436C45.5549 58.0205 45.9599 57.4858 46.7697 57.0397C47.5938 56.5935 48.6665 56.3088 49.9879 56.1858V55.528C49.9879 55.3203 50.1087 55.1549 50.3502 55.0319C50.5918 54.9011 50.8973 54.8357 51.2667 54.8357C51.6503 54.8357 51.9558 54.9011 52.1831 55.0319C52.4247 55.1549 52.5454 55.3203 52.5454 55.528V56.1627C53.8242 56.255 55.0248 56.5165 56.1473 56.9473C56.3604 57.0243 56.5096 57.1127 56.5948 57.2127C56.6943 57.3127 56.744 57.432 56.744 57.5705C56.744 57.7628 56.6303 57.932 56.403 58.0782C56.1899 58.2243 55.9412 58.2974 55.6571 58.2974C55.5008 58.2974 55.3516 58.2859 55.2095 58.2628C55.0816 58.2397 54.8969 58.1897 54.6554 58.1128C54.0728 57.9128 53.5471 57.7628 53.0782 57.6628C52.6236 57.5628 52.0623 57.5128 51.3946 57.5128C50.6273 57.5128 50.0092 57.6051 49.5404 57.7897C49.0857 57.9743 48.8584 58.2205 48.8584 58.5282C48.8584 58.7436 48.9933 58.9205 49.2633 59.059C49.5333 59.1898 49.8743 59.2936 50.2863 59.3705C50.6983 59.4475 51.2738 59.5359 52.0126 59.6359C53.0498 59.7744 53.8952 59.9167 54.5488 60.0629C55.2166 60.2014 55.7849 60.4283 56.2538 60.7437C56.7369 61.0514 56.9784 61.4668 56.9784 61.9899Z" fill="#0C5BC6"/>
<path d="M77.1096 54.2639C77.1096 61.0653 65.4678 66.579 51.1068 66.579C36.7459 66.579 25.104 61.0653 25.104 54.2639C25.104 47.4624 36.7459 41.9488 51.1068 41.9488C65.4678 41.9488 77.1096 47.4624 77.1096 54.2639Z" fill="#4192FF"/>
<path d="M77.1096 53.5395C77.1096 60.3409 65.4678 65.8546 51.1068 65.8546C36.7459 65.8546 25.104 60.3409 25.104 53.5395C25.104 46.738 36.7459 41.2244 51.1068 41.2244C65.4678 41.2244 77.1096 46.738 77.1096 53.5395Z" fill="#4192FF"/>
<path d="M77.1096 52.8151C77.1096 59.6165 65.4678 65.1302 51.1068 65.1302C36.7459 65.1302 25.104 59.6165 25.104 52.8151C25.104 46.0136 36.7459 40.4999 51.1068 40.4999C65.4678 40.4999 77.1096 46.0136 77.1096 52.8151Z" fill="#4192FF"/>
<path d="M77.1096 52.0906C77.1096 58.8921 65.4678 64.4058 51.1068 64.4058C36.7459 64.4058 25.104 58.8921 25.104 52.0906C25.104 45.2892 36.7459 39.7755 51.1068 39.7755C65.4678 39.7755 77.1096 45.2892 77.1096 52.0906Z" fill="#4192FF"/>
<path d="M77.1096 51.3662C77.1096 58.1677 65.4678 63.6813 51.1068 63.6813C36.7459 63.6813 25.104 58.1677 25.104 51.3662C25.104 44.5648 36.7459 39.0511 51.1068 39.0511C65.4678 39.0511 77.1096 44.5648 77.1096 51.3662Z" fill="#4192FF"/>
<path d="M77.1096 50.6418C77.1096 57.4433 65.4678 62.9569 51.1068 62.9569C36.7459 62.9569 25.104 57.4433 25.104 50.6418C25.104 43.8404 36.7459 38.3267 51.1068 38.3267C65.4678 38.3267 77.1096 43.8404 77.1096 50.6418Z" fill="#4192FF"/>
<path d="M77.1096 49.9174C77.1096 56.7188 65.4678 62.2325 51.1068 62.2325C36.7459 62.2325 25.104 56.7188 25.104 49.9174C25.104 43.1159 36.7459 37.6023 51.1068 37.6023C65.4678 37.6023 77.1096 43.1159 77.1096 49.9174Z" fill="#4192FF"/>
<path d="M77.1096 49.193C77.1096 55.9944 65.4678 61.5081 51.1068 61.5081C36.7459 61.5081 25.104 55.9944 25.104 49.193C25.104 42.3915 36.7459 36.8778 51.1068 36.8778C65.4678 36.8778 77.1096 42.3915 77.1096 49.193Z" fill="#4192FF"/>
<path d="M77.1096 48.4685C77.1096 55.27 65.4678 60.7837 51.1068 60.7837C36.7459 60.7837 25.104 55.27 25.104 48.4685C25.104 41.6671 36.7459 36.1534 51.1068 36.1534C65.4678 36.1534 77.1096 41.6671 77.1096 48.4685Z" fill="#4192FF"/>
<path d="M77.1096 47.7441C77.1096 54.5456 65.4678 60.0592 51.1068 60.0592C36.7459 60.0592 25.104 54.5456 25.104 47.7441C25.104 40.9427 36.7459 35.429 51.1068 35.429C65.4678 35.429 77.1096 40.9427 77.1096 47.7441Z" fill="#4192FF"/>
<path d="M77.1096 47.0197C77.1096 53.8212 65.4678 59.3348 51.1068 59.3348C36.7459 59.3348 25.104 53.8212 25.104 47.0197C25.104 40.2183 36.7459 34.7046 51.1068 34.7046C65.4678 34.7046 77.1096 40.2183 77.1096 47.0197Z" fill="#4192FF"/>
<ellipse cx="51.1068" cy="46.4478" rx="26.0028" ry="11.7432" fill="white"/>
<path d="M56.9784 48.569C56.9784 49.1921 56.5806 49.7191 55.7849 50.1499C55.0035 50.573 53.945 50.8461 52.6094 50.9691V51.6269C52.6094 51.8346 52.4886 52 52.2471 52.123C52.0197 52.2538 51.7142 52.3192 51.3306 52.3192C50.9612 52.3192 50.6557 52.2538 50.4142 52.123C50.1726 52 50.0519 51.8346 50.0519 51.6269V51.0038C49.2704 50.9653 48.5103 50.8768 47.7714 50.7384C47.0468 50.5999 46.4074 50.423 45.8533 50.2076C45.626 50.1306 45.4626 50.046 45.3631 49.9537C45.2779 49.8537 45.2352 49.7306 45.2352 49.5844C45.2352 49.3921 45.3418 49.2229 45.5549 49.0767C45.7823 48.9306 46.038 48.8575 46.3222 48.8575C46.5921 48.8575 46.926 48.919 47.3239 49.0421C47.9774 49.2498 48.5955 49.4037 49.178 49.5037C49.7748 49.596 50.3929 49.6421 51.0322 49.6421C51.8847 49.6421 52.5383 49.5575 52.993 49.3883C53.4477 49.2114 53.675 48.9652 53.675 48.6498C53.675 48.4575 53.54 48.2998 53.2701 48.1767C53.0143 48.0536 52.6946 47.9574 52.311 47.8882C51.9274 47.819 51.3732 47.7305 50.6486 47.6228C49.5972 47.4766 48.7305 47.3305 48.0485 47.1843C47.3665 47.0382 46.7768 46.8074 46.2795 46.492C45.7965 46.1766 45.5549 45.7535 45.5549 45.2227C45.5549 44.5996 45.9599 44.0649 46.7697 43.6188C47.5938 43.1726 48.6665 42.8879 49.9879 42.7649V42.1071C49.9879 41.8994 50.1087 41.734 50.3502 41.611C50.5918 41.4802 50.8973 41.4148 51.2667 41.4148C51.6503 41.4148 51.9558 41.4802 52.1831 41.611C52.4247 41.734 52.5454 41.8994 52.5454 42.1071V42.7418C53.8242 42.8341 55.0248 43.0957 56.1473 43.5264C56.3604 43.6034 56.5096 43.6918 56.5948 43.7918C56.6943 43.8918 56.744 44.0111 56.744 44.1496C56.744 44.3419 56.6303 44.5111 56.403 44.6573C56.1899 44.8034 55.9412 44.8765 55.6571 44.8765C55.5008 44.8765 55.3516 44.865 55.2095 44.8419C55.0816 44.8188 54.8969 44.7688 54.6554 44.6919C54.0728 44.4919 53.5471 44.3419 53.0782 44.2419C52.6236 44.1419 52.0623 44.0919 51.3946 44.0919C50.6273 44.0919 50.0092 44.1842 49.5404 44.3688C49.0857 44.5534 48.8584 44.7996 48.8584 45.1073C48.8584 45.3227 48.9933 45.4996 49.2633 45.6381C49.5333 45.7689 49.8743 45.8727 50.2863 45.9496C50.6983 46.0266 51.2738 46.115 52.0126 46.215C53.0498 46.3535 53.8952 46.4958 54.5488 46.642C55.2166 46.7805 55.7849 47.0074 56.2538 47.3228C56.7369 47.6305 56.9784 48.0459 56.9784 48.569Z" fill="#0C5BC6"/>
<path d="M71.238 38.3269C71.238 45.1283 59.5961 50.642 45.2352 50.642C30.8742 50.642 19.2324 45.1283 19.2324 38.3269C19.2324 31.5254 30.8742 26.0118 45.2352 26.0118C59.5961 26.0118 71.238 31.5254 71.238 38.3269Z" fill="#4192FF"/>
<path d="M71.238 37.6025C71.238 44.4039 59.5961 49.9176 45.2352 49.9176C30.8742 49.9176 19.2324 44.4039 19.2324 37.6025C19.2324 30.801 30.8742 25.2873 45.2352 25.2873C59.5961 25.2873 71.238 30.801 71.238 37.6025Z" fill="#4192FF"/>
<path d="M71.238 36.878C71.238 43.6795 59.5961 49.1932 45.2352 49.1932C30.8742 49.1932 19.2324 43.6795 19.2324 36.878C19.2324 30.0766 30.8742 24.5629 45.2352 24.5629C59.5961 24.5629 71.238 30.0766 71.238 36.878Z" fill="#4192FF"/>
<path d="M71.238 36.1536C71.238 42.9551 59.5961 48.4687 45.2352 48.4687C30.8742 48.4687 19.2324 42.9551 19.2324 36.1536C19.2324 29.3522 30.8742 23.8385 45.2352 23.8385C59.5961 23.8385 71.238 29.3522 71.238 36.1536Z" fill="#4192FF"/>
<path d="M71.238 35.4292C71.238 42.2307 59.5961 47.7443 45.2352 47.7443C30.8742 47.7443 19.2324 42.2307 19.2324 35.4292C19.2324 28.6278 30.8742 23.1141 45.2352 23.1141C59.5961 23.1141 71.238 28.6278 71.238 35.4292Z" fill="#4192FF"/>
<path d="M71.238 34.7048C71.238 41.5062 59.5961 47.0199 45.2352 47.0199C30.8742 47.0199 19.2324 41.5062 19.2324 34.7048C19.2324 27.9033 30.8742 22.3897 45.2352 22.3897C59.5961 22.3897 71.238 27.9033 71.238 34.7048Z" fill="#4192FF"/>
<path d="M71.238 33.9804C71.238 40.7818 59.5961 46.2955 45.2352 46.2955C30.8742 46.2955 19.2324 40.7818 19.2324 33.9804C19.2324 27.1789 30.8742 21.6653 45.2352 21.6653C59.5961 21.6653 71.238 27.1789 71.238 33.9804Z" fill="#4192FF"/>
<path d="M71.238 33.256C71.238 40.0574 59.5961 45.5711 45.2352 45.5711C30.8742 45.5711 19.2324 40.0574 19.2324 33.256C19.2324 26.4545 30.8742 20.9408 45.2352 20.9408C59.5961 20.9408 71.238 26.4545 71.238 33.256Z" fill="#4192FF"/>
<path d="M71.238 32.5315C71.238 39.333 59.5961 44.8467 45.2352 44.8467C30.8742 44.8467 19.2324 39.333 19.2324 32.5315C19.2324 25.7301 30.8742 20.2164 45.2352 20.2164C59.5961 20.2164 71.238 25.7301 71.238 32.5315Z" fill="#4192FF"/>
<path d="M71.238 31.8071C71.238 38.6086 59.5961 44.1222 45.2352 44.1222C30.8742 44.1222 19.2324 38.6086 19.2324 31.8071C19.2324 25.0057 30.8742 19.492 45.2352 19.492C59.5961 19.492 71.238 25.0057 71.238 31.8071Z" fill="#4192FF"/>
<path d="M71.238 31.0827C71.238 37.8841 59.5961 43.3978 45.2352 43.3978C30.8742 43.3978 19.2324 37.8841 19.2324 31.0827C19.2324 24.2812 30.8742 18.7676 45.2352 18.7676C59.5961 18.7676 71.238 24.2812 71.238 31.0827Z" fill="#4192FF"/>
<ellipse cx="45.2352" cy="30.5108" rx="26.0028" ry="11.7432" fill="white"/>
<path d="M51.1068 32.632C51.1068 33.2551 50.709 33.7821 49.9133 34.2128C49.1318 34.6359 48.0733 34.909 46.7377 35.0321V35.6898C46.7377 35.8976 46.617 36.0629 46.3754 36.186C46.1481 36.3168 45.8426 36.3822 45.459 36.3822C45.0896 36.3822 44.7841 36.3168 44.5425 36.186C44.301 36.0629 44.1802 35.8976 44.1802 35.6898V35.0667C43.3988 35.0283 42.6386 34.9398 41.8998 34.8013C41.1752 34.6629 40.5358 34.4859 39.9817 34.2705C39.7543 34.1936 39.5909 34.109 39.4915 34.0167C39.4062 33.9167 39.3636 33.7936 39.3636 33.6474C39.3636 33.4551 39.4701 33.2859 39.6833 33.1397C39.9106 32.9936 40.1664 32.9205 40.4505 32.9205C40.7205 32.9205 41.0544 32.982 41.4522 33.1051C42.1058 33.3128 42.7239 33.4667 43.3064 33.5667C43.9032 33.659 44.5212 33.7051 45.1606 33.7051C46.0131 33.7051 46.6667 33.6205 47.1214 33.4513C47.576 33.2743 47.8034 33.0282 47.8034 32.7128C47.8034 32.5205 47.6684 32.3628 47.3984 32.2397C47.1427 32.1166 46.823 32.0204 46.4393 31.9512C46.0557 31.882 45.5016 31.7935 44.777 31.6858C43.7256 31.5396 42.8588 31.3935 42.1768 31.2473C41.4948 31.1012 40.9052 30.8704 40.4079 30.555C39.9248 30.2396 39.6833 29.8165 39.6833 29.2857C39.6833 28.6626 40.0882 28.1279 40.8981 27.6817C41.7222 27.2356 42.7949 26.9509 44.1163 26.8279V26.1701C44.1163 25.9624 44.2371 25.797 44.4786 25.6739C44.7201 25.5432 45.0256 25.4778 45.395 25.4778C45.7787 25.4778 46.0841 25.5432 46.3115 25.6739C46.553 25.797 46.6738 25.9624 46.6738 26.1701V26.8048C47.9525 26.8971 49.1531 27.1586 50.2756 27.5894C50.4887 27.6664 50.6379 27.7548 50.7232 27.8548C50.8226 27.9548 50.8724 28.0741 50.8724 28.2125C50.8724 28.4049 50.7587 28.5741 50.5314 28.7203C50.3182 28.8664 50.0696 28.9395 49.7854 28.9395C49.6291 28.9395 49.4799 28.928 49.3379 28.9049C49.21 28.8818 49.0253 28.8318 48.7837 28.7549C48.2012 28.5549 47.6755 28.4049 47.2066 28.3049C46.7519 28.2048 46.1907 28.1548 45.5229 28.1548C44.7557 28.1548 44.1376 28.2472 43.6687 28.4318C43.2141 28.6164 42.9867 28.8626 42.9867 29.1703C42.9867 29.3857 43.1217 29.5626 43.3917 29.7011C43.6616 29.8319 44.0026 29.9357 44.4147 30.0126C44.8267 30.0896 45.4021 30.178 46.141 30.278C47.1782 30.4165 48.0236 30.5588 48.6772 30.705C49.345 30.8434 49.9133 31.0704 50.3822 31.3858C50.8653 31.6935 51.1068 32.1089 51.1068 32.632Z" fill="#0C5BC6"/>
</g>
</svg>
