<svg width="19" height="19" viewBox="0 0 19 19" fill="none" xmlns="http://www.w3.org/2000/svg">
<path d="M10.4511 2.53568L11.2431 4.97337C11.6447 6.20944 12.7966 7.04632 14.0963 7.04632H16.6594C17.6282 7.04632 18.0309 8.28593 17.2472 8.85534L15.1736 10.3619C14.1221 11.1258 13.6821 12.4799 14.0838 13.716L14.8758 16.1537C15.1752 17.075 14.1207 17.8412 13.337 17.2717L11.2634 15.7652C10.2119 15.0012 8.78811 15.0012 7.73664 15.7652L5.66301 17.2717C4.8793 17.8411 3.82482 17.075 4.12418 16.1537L4.91623 13.716C5.31785 12.4799 4.87788 11.1258 3.82642 10.3619L1.75279 8.85534C0.969075 8.28594 1.37185 7.04632 2.34057 7.04632H4.90372C6.2034 7.04632 7.35527 6.20944 7.75689 4.97337L8.54894 2.53567C8.8483 1.61437 10.1517 1.61436 10.4511 2.53568Z" stroke="#FFC226" stroke-width="2"/>
</svg>
