<svg width="19" height="19" viewBox="0 0 19 19" fill="none" xmlns="http://www.w3.org/2000/svg">
<path d="M7.59789 2.22666C8.19659 0.384036 10.8034 0.384037 11.4021 2.22666L12.1942 4.66435C12.4619 5.4884 13.2298 6.04632 14.0963 6.04632H16.6594C18.5969 6.04632 19.4024 8.52555 17.835 9.66435L15.7614 11.1709C15.0604 11.6802 14.7671 12.583 15.0348 13.407L15.8269 15.8447C16.4256 17.6873 14.3166 19.2196 12.7492 18.0808L10.6756 16.5742C9.9746 16.0649 9.0254 16.0649 8.32443 16.5742L6.2508 18.0808C4.68337 19.2196 2.57441 17.6873 3.17312 15.8447L3.96517 13.407C4.23292 12.583 3.93961 11.6802 3.23863 11.1709L1.165 9.66435C-0.402425 8.52555 0.403127 6.04632 2.34057 6.04632H4.90372C5.77017 6.04632 6.53808 5.4884 6.80583 4.66435L7.59789 2.22666Z" fill="#FFB422"/>
</svg>
