<svg width="15" height="21" viewBox="0 0 15 21" fill="none" xmlns="http://www.w3.org/2000/svg">
<path d="M2.11668 20.5C1.84802 20.4994 1.58413 20.4119 1.35094 20.2462C0.825871 19.8766 0.499451 19.1592 0.499451 18.3804V2.61965C0.499451 1.83868 0.825871 1.12346 1.35094 0.753899C1.58968 0.583485 1.86089 0.495849 2.13622 0.500151C2.41155 0.504453 2.68089 0.600536 2.9161 0.778356L13.761 8.84136C13.9871 9.01739 14.1734 9.26183 14.3025 9.55176C14.4317 9.84169 14.4995 10.1676 14.4995 10.499C14.4995 10.8303 14.4317 11.1562 14.3025 11.4462C14.1734 11.7361 13.9871 11.9805 13.761 12.1566L2.91435 20.2217C2.67365 20.4025 2.39795 20.4987 2.11668 20.5Z" fill="white"/>
</svg>
